{"title":"Nymphomaniac.Vol.I.2013.Directors.Cut.BRRip.x264.HORiZON-ArtSubs","uid":11413139,"size":2147726110,"categoryP":"video","categoryS":"movies","magnet":"?xt=urn:btih:df6578039a1de3ccbde581796c57a6294032d8f7&amp;dn=Nymphomaniac.Vol.I.2013.Directors.Cut.BRRip.x264.HORiZON-ArtSubs&amp;tr=udp%3A%2F%2Ftracker.openbittorrent.com%3A80&amp;tr=udp%3A%2F%2Fopen.demonii.com%3A1337&amp;tr=udp%3A%2F%2Ftracker.coppersurfer.tk%3A6969&amp;tr=udp%3A%2F%2Fexodus.desync.com%3A6969","seeders":2,"leechers":1,"uploader":"lletaif","files":3,"time":1415548908,"description":"Title:\nNymphomaniac: Vol I Director's Cut\n\n\n\nCountry:\nFrance, UK, Dennmark/ 2013\n\n\nLanguage:\nEnglish\n\nDirector:\nLars von Trier\n\n\nIMDB: &lt;a href=&quot;\nhttp://www.imdb.com/title/tt1937390/?ref_=nv_sr_1&quot; rel=&quot;nofollow&quot; target=&quot;_NEW&quot;&gt;\nhttp://www.imdb.com/title/tt1937390/?ref_=nv_sr_1&lt;/a&gt;\n\nPlot:\nA self-diagnosed nymphomaniac recounts her erotic experiences to the man who saved her after a beating.\n\n\nMedia Info:\n\nGeneral\nUnique ID                                : 198215280076453921778149641080485058377 (0x951EDFD450E318E6BF2C732C7EA61749)\nComplete name                            : Nymphomaniac.Vol.I.2013.Directors.Cut.BRRip.x264.HORiZON-ArtSubs.mkv\nFormat                                   : Matroska\nFormat version                           : Version 2\nFile size                                : 1.99 GiB\nDuration                                 : 2h 28mn\nOverall bit rate                         : 1 924 Kbps\nMovie name                               : NYMPH()MANIAC_DIRECTOR'S_CUT!.Title0\nEncoded date                             : UTC 2014-11-09 12:42:07\nWriting application                      : DVDFab 9.1.4.0\nWriting library                          : libebml v0.7.8 + libmatroska v0.8.1\n\nVideo\nID                                       : 1\nFormat                                   : AVC\nFormat/Info                              : Advanced Video Codec\nFormat profile                           : &lt;a class=&quot;__cf_email__&quot; href=&quot;/cdn-cgi/l/email-protection&quot; data-cfemail=&quot;0941606e6149453d2738&quot;&gt;[email&amp;#160;protected]&lt;/a&gt;&lt;script cf-hash='f9e31' type=&quot;text/javascript&quot;&gt;\n/* &lt;![CDATA[ */!function(){try{var t=&quot;currentScript&quot;in document?document.currentScript:function(){for(var t=document.getElementsByTagName(&quot;script&quot;),e=t.length;e--;)if(t[e].getAttribute(&quot;cf-hash&quot;))return t[e]}();if(t&amp;&amp;t.previousSibling){var e,r,n,i,c=t.previousSibling,a=c.getAttribute(&quot;data-cfemail&quot;);if(a){for(e=&quot;&quot;,r=parseInt(a.substr(0,2),16),n=2;a.length-n;n+=2)i=parseInt(a.substr(n,2),16)^r,e+=String.fromCharCode(i);e=document.createTextNode(e),c.parentNode.replaceChild(e,c)}}}catch(u){}}();/* ]]&gt; */&lt;/script&gt;\nFormat settings, CABAC                   : Yes\nFormat settings, ReFrames                : 2 frames\nCodec ID                                 : V_MPEG4/ISO/AVC\nDuration                                 : 2h 28mn\nBit rate                                 : 1 438 Kbps\nWidth                                    : 1 024 pixels\nHeight                                   : 436 pixels\nDisplay aspect ratio                     : 2.35:1\nFrame rate mode                          : Constant\nFrame rate                               : 24.000 fps\nColor space                              : YUV\nChroma subsampling                       : 4:2:0\nBit depth                                : 8 bits\nScan type                                : Progressive\nBits/(Pixel*Frame)                       : 0.134\nStream size                              : 1.49 GiB (75%)\nWriting library                          : x264 core\nDefault                                  : Yes\nForced                                   : No\nColor primaries                          : BT.601 NTSC\nTransfer characteristics                 : BT.709\nMatrix coefficients                      : BT.601\n\nAudio\nID                                       : 2\nFormat                                   : AC-3\nFormat/Info                              : Audio Coding 3\nMode extension                           : CM (complete main)\nFormat settings, Endianness              : Big\nCodec ID                                 : A_AC3\nDuration                                 : 2h 28mn\nBit rate mode                            : Constant\nBit rate                                 : 448 Kbps\nChannel(s)                               : 6 channels\nChannel positions                        : Front: L C R, Side: L R, LFE\nSampling rate                            : 48.0 KHz\nBit depth                                : 16 bits\nCompression mode                         : Lossy\nStream size                              : 474 MiB (23%)\nLanguage                                 : English\nDefault                                  : Yes\nForced                                   : No\n\nMenu\n00:00:00.000                             : en:(01)00:00:00:000\n00:11:47.208                             : en:(02)00:11:47:208\n00:25:13.458                             : en:(03)00:25:13:458\n00:34:49.208                             : en:(04)00:34:49:208\n00:50:59.125                             : en:(05)00:50:59:125\n01:12:06.875                             : en:(06)01:12:06:875\n01:26:09.083                             : en:(07)01:26:09:083\n01:40:59.375                             : en:(08)01:40:59:375\n01:47:21.666                             : en:(09)01:47:21:666\n02:05:37.875                             : en:(10)02:05:37:875\n02:12:23.375                             : en:(11)02:12:23:375\n02:23:45.000                             : en:(12)02:23:45:000\n02:28:01.375                             : en:(13)02:28:01:375","torrent":{"xt":"urn:btih:df6578039a1de3ccbde581796c57a6294032d8f7","amp;dn":"Nymphomaniac.Vol.I.2013.Directors.Cut.BRRip.x264.HORiZON-ArtSubs","amp;tr":["udp%3A%2F%2Ftracker.openbittorrent.com%3A80","udp%3A%2F%2Fopen.demonii.com%3A1337","udp%3A%2F%2Ftracker.coppersurfer.tk%3A6969","udp%3A%2F%2Fexodus.desync.com%3A6969"],"infoHash":"df6578039a1de3ccbde581796c57a6294032d8f7","infoHashBuffer":{"type":"Buffer","data":[223,101,120,3,154,29,227,204,189,229,129,121,108,87,166,41,64,50,216,247]},"announce":[],"urlList":[]}}